HIERARCHY
ROOT Hips
{
	OFFSET 0.00000 0.00000 0.00000
	CHANNELS 6 Xposition Yposition Zposition Zrotation Yrotation Xrotation 
	JOINT LHipJoint
	{
		OFFSET 0 0 0
		CHANNELS 3 Zrotation Yrotation Xrotation
		JOINT LeftUpLeg
		{
			OFFSET 1.54859 -1.61379 0.86856
			CHANNELS 3 Zrotation Yrotation Xrotation
			JOINT LeftLeg
			{
				OFFSET 2.25087 -6.18423 0.00000
				CHANNELS 3 Zrotation Yrotation Xrotation
				JOINT LeftFoot
				{
					OFFSET 2.40328 -6.60297 0.00000
					CHANNELS 3 Zrotation Yrotation Xrotation
					JOINT LeftToeBase
					{
						OFFSET 0.17435 -0.47901 2.02453
						CHANNELS 3 Zrotation Yrotation Xrotation
						End Site
						{
							OFFSET 0.00000 -0.00000 1.04844
						}
					}
				}
			}
		}
	}
	JOINT RHipJoint
	{
		OFFSET 0 0 0
		CHANNELS 3 Zrotation Yrotation Xrotation
		JOINT RightUpLeg
		{
			OFFSET -1.54669 -1.61379 0.86856
			CHANNELS 3 Zrotation Yrotation Xrotation
			JOINT RightLeg
			{
				OFFSET -2.28132 -6.26789 0.00000
				CHANNELS 3 Zrotation Yrotation Xrotation
				JOINT RightFoot
				{
					OFFSET -2.51636 -6.91365 0.00000
					CHANNELS 3 Zrotation Yrotation Xrotation
					JOINT RightToeBase
					{
						OFFSET -0.15124 -0.41552 2.21090
						CHANNELS 3 Zrotation Yrotation Xrotation
						End Site
						{
							OFFSET -0.00000 -0.00000 1.13399
						}
					}
				}
			}
		}
	}
	JOINT LowerBack
	{
		OFFSET 0 0 0
		CHANNELS 3 Zrotation Yrotation Xrotation
		JOINT Spine
		{
			OFFSET -0.04287 2.26161 -0.25690
			CHANNELS 3 Zrotation Yrotation Xrotation
			JOINT Spine1
			{
				OFFSET 0.02248 2.28395 -0.10140
				CHANNELS 3 Zrotation Yrotation Xrotation
				JOINT Neck
				{
					OFFSET 0 0 0
					CHANNELS 3 Zrotation Yrotation Xrotation
					JOINT Neck1
					{
						OFFSET -0.11644 1.38496 0.11345
						CHANNELS 3 Zrotation Yrotation Xrotation
						JOINT Head
						{
							OFFSET 0.29383 1.36600 0.06642
							CHANNELS 3 Zrotation Yrotation Xrotation
							End Site
							{
								OFFSET 0.11075 1.41395 -0.00294
							}
						}
					}
				}
				JOINT LeftShoulder
				{
					OFFSET 0 0 0
					CHANNELS 3 Zrotation Yrotation Xrotation
					JOINT LeftArm
					{
						OFFSET 3.51628 0.59542 -0.30346
						CHANNELS 3 Zrotation Yrotation Xrotation
						JOINT LeftForeArm
						{
							OFFSET 4.76405 -0.00000 0.00000
							CHANNELS 3 Zrotation Yrotation Xrotation
							JOINT LeftHand
							{
								OFFSET 3.13759 -0.00000 -0.00000
								CHANNELS 3 Zrotation Yrotation Xrotation
								JOINT LeftFingerBase
								{
									OFFSET 0 0 0
									CHANNELS 3 Zrotation Yrotation Xrotation
									JOINT LeftHandIndex1
									{
										OFFSET 0.73226 -0.00000 -0.00000
										CHANNELS 3 Zrotation Yrotation Xrotation
										End Site
										{
											OFFSET 0.59037 -0.00000 -0.00000
										}
									}
								}
								JOINT LThumb
								{
									OFFSET 0 0 0
									CHANNELS 3 Zrotation Yrotation Xrotation
									End Site
									{
										OFFSET 0.59938 -0.00000 0.59938
									}
								}
							}
						}
					}
				}
				JOINT RightShoulder
				{
					OFFSET 0 0 0
					CHANNELS 3 Zrotation Yrotation Xrotation
					JOINT RightArm
					{
						OFFSET -3.30990 0.84213 -0.36430
						CHANNELS 3 Zrotation Yrotation Xrotation
						JOINT RightForeArm
						{
							OFFSET -5.10161 -0.00000 -0.00000
							CHANNELS 3 Zrotation Yrotation Xrotation
							JOINT RightHand
							{
								OFFSET -3.23267 -0.00000 -0.00000
								CHANNELS 3 Zrotation Yrotation Xrotation
								JOINT RightFingerBase
								{
									OFFSET 0 0 0
									CHANNELS 3 Zrotation Yrotation Xrotation
									JOINT RightHandIndex1
									{
										OFFSET -0.70200 -0.00000 -0.00000
										CHANNELS 3 Zrotation Yrotation Xrotation
										End Site
										{
											OFFSET -0.56597 -0.00000 -0.00000
										}
									}
								}
								JOINT RThumb
								{
									OFFSET 0 0 0
									CHANNELS 3 Zrotation Yrotation Xrotation
									End Site
									{
										OFFSET -0.57461 -0.00000 0.57461
									}
								}
							}
						}
					}
				}
			}
		}
	}
}
MOTION
Frames: 7
Frame Time: .0083333
2.6628 14.2503 6.4230 204.7240 66.9700 214.2190 0.0000 0.0000 0.0000 -16.5502 10.0110 -6.7622 21.9930 19.9045 95.8360 0.0158 4.7824 -7.3488 0.0232 -0.9835 -2.7035 0.0000 0.0000 0.0000 7.8317 10.7271 -41.5010 -7.6604 -15.8637 51.3302 -0.9924 3.9203 -17.9223 -5.2032 13.6091 -41.6935 4.6914 -2.1176 16.6041 6.0364 -1.1012 8.5749 3.9116 -0.1807 -0.1296 -5.3308 0.8311 -8.6455 4.0792 2.3954 -12.5359 2.2507 1.6096 -2.6770 0.0000 -0.0000 0.0000 -89.4458 10.5967 50.1431 33.4996 -43.7105 -13.7661 -0.0000 0.0000 -15.6957 27.9783 20.1171 10.3543 -7.1250 0.0000 -0.0000 -0.4805 52.5060 -0.0888 0.0000 -0.0000 0.0000 80.5295 38.5461 43.5359 -98.1411 59.7481 -67.0444 0.0000 0.0000 23.9844 -21.9319 22.4169 -8.7294 7.1250 -0.0000 -0.0000 4.3674 -6.0638 3.8932
3.0591 14.2354 6.2673 209.1890 66.2271 217.8990 0.0000 0.0000 0.0000 -14.1394 10.9071 -10.4365 23.6860 19.6711 100.8343 0.1067 2.3447 -7.5012 0.0182 -0.8716 -2.3955 0.0000 0.0000 0.0000 10.4608 10.1609 -39.2209 -7.7589 -15.9390 51.6894 -1.2335 3.6400 -20.1064 -5.6407 14.0709 -43.5223 6.5735 -1.7111 17.2094 6.4826 -0.1470 8.8239 3.1838 0.3827 -0.2069 -5.8055 0.1891 -9.2610 4.5882 1.7039 -12.9686 2.5132 1.3116 -2.6964 0.0000 0.0000 0.0000 -89.2525 11.6099 50.2435 31.4663 -42.1175 -12.3814 -0.0000 0.0000 -14.7119 28.1242 20.1011 10.4088 -7.1250 0.0000 -0.0000 -0.3262 52.5163 -0.0603 0.0000 0.0000 0.0000 79.9992 39.0115 44.6378 -90.8940 59.9970 -60.7742 0.0000 0.0000 26.0257 -23.8865 23.9005 -10.1720 7.1250 -0.0000 -0.0000 3.3100 -4.1592 3.0664
3.4645 14.2199 6.1227 211.1890 64.9676 218.4430 0.0000 0.0000 0.0000 -12.4712 10.6875 -12.9187 25.0566 19.3756 104.9338 0.0846 2.1305 -6.7118 0.0044 -0.4298 -1.1809 0.0000 0.0000 0.0000 12.7029 8.5762 -35.6620 -7.6823 -15.8806 51.4102 -1.4708 2.5476 -22.2442 -6.2832 14.6973 -46.1081 8.0587 -1.6716 18.4238 6.7940 0.3882 9.2736 2.6123 0.7454 -0.3376 -6.1040 -0.3604 -9.7675 5.1506 1.1342 -13.4352 2.7626 1.0676 -2.7460 -0.0000 -0.0000 0.0000 -88.8006 12.5025 50.5775 29.7987 -40.7202 -11.2780 -0.0000 0.0000 -14.2365 28.2617 20.1352 10.4843 -7.1250 0.0000 -0.0000 -0.1908 52.5800 -0.0356 -0.0000 -0.0000 0.0000 79.5710 39.7603 45.2606 -81.2731 59.7103 -52.4496 0.0000 0.0000 26.8933 -26.4674 25.9786 -12.3027 7.1250 -0.0000 -0.0000 2.0121 -1.4348 1.9623
3.8754 14.2296 5.9659 212.2620 64.1587 218.7400 0.0000 0.0000 0.0000 -11.3321 10.9487 -16.4311 26.1320 19.0735 108.1992 0.1057 -0.8374 -5.8997 0.0518 -1.4690 -4.0404 0.0000 0.0000 0.0000 14.1932 7.0898 -32.6111 -7.4998 -15.7387 50.7401 -1.6097 -0.1950 -24.0797 -7.1470 15.4544 -49.4281 8.9553 -1.4234 18.9857 6.8789 0.9869 9.5614 2.1010 1.1064 -0.2867 -6.2106 -0.9904 -9.7663 5.8110 0.4211 -14.0750 3.0140 0.7320 -2.9280 -0.0000 -0.0000 0.0000 -87.9211 13.5194 51.2740 28.7489 -39.7966 -10.5996 -0.0000 0.0000 -14.2893 28.4592 20.3885 10.6936 -7.1250 0.0000 -0.0000 -0.0388 52.8962 -0.0075 -0.0000 -0.0000 0.0000 79.4323 40.7445 45.5431 -69.7098 58.3858 -42.5234 0.0000 0.0000 27.5717 -29.2605 26.4672 -14.0203 7.1250 -0.0000 -0.0000 0.4215 -0.2678 0.4196
4.2777 14.2434 5.8218 211.9200 63.6170 218.2400 0.0000 0.0000 0.0000 -11.6553 10.3380 -20.6586 26.9884 18.7863 110.8385 0.0697 -2.3339 -4.7209 0.0582 -1.5573 -4.2836 0.0000 0.0000 0.0000 14.6266 6.2227 -30.4997 -7.3670 -15.6333 50.2490 -1.8160 1.4077 -25.0928 -6.6740 15.0511 -47.6304 9.0036 -0.9979 19.1357 6.8648 1.5827 9.6548 1.9469 1.4162 -0.2464 -6.2290 -1.6143 -9.5247 6.4720 -0.3010 -14.7821 3.2567 0.3810 -3.1707 0.0000 0.0000 0.0000 -86.8280 14.7079 52.2597 28.2041 -39.3035 -10.2527 -0.0000 0.0000 -14.6621 28.6406 20.5090 10.8322 -7.1250 0.0000 -0.0000 0.1253 53.0641 0.0249 0.0000 0.0000 0.0000 79.5108 41.8918 44.7110 -58.2143 55.8150 -32.8595 0.0000 0.0000 28.4889 -30.8503 28.9892 -16.1448 7.1250 -0.0000 -0.0000 -0.0585 2.8576 -0.0614
4.6720 14.2460 5.6890 210.7130 63.2188 217.1370 0.0000 0.0000 0.0000 -12.8260 9.1521 -25.0491 27.6424 18.5378 112.8820 0.0651 -3.2906 -4.7614 0.1228 -2.2592 -6.2227 0.0000 0.0000 0.0000 14.6814 5.3966 -28.6074 -7.2679 -15.5534 49.8805 -1.9594 0.9917 -26.2053 -6.6978 15.0720 -47.7218 8.3850 -0.4901 19.0541 6.8944 2.1299 9.7305 2.2201 1.6735 -0.1384 -6.7226 -2.1802 -9.1750 7.5974 -0.8579 -15.6710 3.4328 0.0919 -3.0903 -0.0000 -0.0000 0.0000 -85.9137 15.8568 53.2836 28.0005 -39.1167 -10.1240 -0.0000 0.0000 -15.5790 28.7112 20.3209 10.7700 -7.1250 0.0000 -0.0000 0.2381 52.8709 0.0461 -0.0000 -0.0000 0.0000 79.6022 43.1897 43.2251 -47.8633 52.0965 -24.4778 0.0000 0.0000 29.8556 -31.2346 31.1780 -17.4300 7.1250 -0.0000 -0.0000 0.1566 5.3062 0.1704
5.0718 14.2580 5.5439 209.4710 62.7036 216.1110 0.0000 0.0000 0.0000 -14.2631 7.4926 -29.2543 28.0168 18.3836 114.0643 0.0553 -3.9528 -4.6800 0.1083 -2.1218 -5.8423 0.0000 0.0000 0.0000 14.7668 4.5630 -26.8141 -7.1511 -15.4578 49.4436 -2.1079 0.9702 -27.2062 -6.6557 15.0350 -47.5598 7.7715 -0.0249 18.7446 6.9662 2.5956 9.7881 2.5590 1.8896 0.0546 -6.8002 -2.6585 -8.4762 7.9937 -1.4382 -16.4726 3.5809 -0.2035 -3.3895 0.0000 0.0000 0.0000 -85.1844 17.0005 54.0971 27.9443 -39.0649 -10.0886 -0.0000 0.0000 -16.5096 28.6900 19.9767 10.5900 -7.1250 0.0000 -0.0000 0.2857 52.4878 0.0527 0.0000 0.0000 0.0000 79.7357 44.8069 41.3323 -38.6096 47.2242 -17.4116 0.0000 0.0000 31.2653 -30.7756 32.6950 -17.8326 7.1250 -0.0000 -0.0000 0.7284 6.7799 0.8093
